<svg id="Layer_1" data-name="Layer 1" xmlns="http://www.w3.org/2000/svg" viewBox="0 0 425.22 58.64">
  <defs>
    <style>
      .cls-1 {
        fill: #dfcb16;
      }
    </style>
  </defs>
  <g>
    <path class="cls-1" d="M160.22,21a10.9,10.9,0,0,0-.82-7C157.89,16.41,160.22,18.27,160.22,21Z" transform="translate(0 -0.07)"/>
    <path class="cls-1" d="M165.11,18.24a1,1,0,0,0-.49-.16c-.15.65.44,1.38-.59,2.5a5.1,5.1,0,0,1,.19,1.34A35.84,35.84,0,0,0,165.11,18.24Z" transform="translate(0 -0.07)"/>
    <path class="cls-1" d="M424.85,22.39c-.48.89-.77.75-.77,1.53-1.48-.2-.51-3-2.94-3.26l1.47,5.07c-1.44-1.16-2.12-2.59-3.39-1.84l-2.37-2.3c-.25,1.05-.31,1.91-1.44,2.37-.18-1.89.28-3.71-.85-5.4l-.22,3.32c-.54-1.66-.93-2.88-1.54-4.73-.89,2.74-2.8,4.57-1.17,7C410.2,24.72,410,22.86,409,23c-.58.47.15,1.41-.81,1.76-1.62-.31-.88-2.28-2.15-3.06.06.92.11,1.75.19,2.92l-4.46-3.74c-.52,1.63.61,2,1.54,2.41v2.22l-1.51-.62-.49,1c-.52-1.59.44-3.23-.69-4.58-1.16.64-.14,1.57-.53,2.48-1.45-1.61-.9.54-1.46.79-.64-1.26-1.18-2.48-2.74-3,.43,1.17.77,2.12,1.34,3.67-4.32-3.76-4.89-8.51-6-13.13-1.37,4-.22,8.14-1.48,12-2-.37-1.78-2.2-2-3.59a33,33,0,0,1,0-4.45v-4.4h-.38c-.23,2.78-.45,5.56-.72,8.81-.5-2.7-.37-5-1.66-7.12l.87,7.14-.37.07c-.55-2.94-1.1-5.87-1.76-9.43-1.29,4,.91,7.11.3,10.49-2.27-1.09-2.25-3.43-3.21-5.3l-.47,1.25c-1.2-.08-.94-1.41-1.79-1.65-.24,1.8-2.38,2.41-2.61,4.29-.25-1.42-.92-2-2.41-1.58.49.76,1.5,1.56,0,2.46-.22-1.66-1.86-2.15-2.45-4a5.06,5.06,0,0,0,.18,4c-2,.24-1.12-1.26-1.43-1.94-.43-1-.94-1.87-1.51-3-.59,4.77-1,5.27-5.85,4.86-.94-.08-1.74-1.64-2.7.15-.33-2.12-2.7-2.3-3.06-4-.76,0-.78,1.09-1.45.71v2.68c-1.54.35-2-1-3.17-1.33-.2.37-.38,1.1-1.23,1-.59-.73.32-2-1-2.54l-.3,1.92c-.23-.74-.33-1.07-.43-1.37-1.27,1.43-2.52-.82-3.88.07.15.69.32,1.44.45,2-3.81,1.37-1.39-2.42-2.86-3.4l-.95,4.1c-4,1-1.39-5.21-5.37-4.67-.18,1.68-.32,3-.48,4.55-1.88-.5-.47-2.61-2-2.85.21-.6,1.05-.31.79-1.32-.68,1.12-1.26-.29-1.5-.16-1,.72-.08,1.73-1.58,2,.48-1.75.92-3.32,1.52-5.46-2,1.64-1.38,3.78-2.59,5.08-.4-1.53-.77-3-1.33-5.08-.36,1.81.28,3.14-1.47,3.76,1.62,1,1.32,2.32,1.16,4.08-1.73-1.83-.81-4.63-3-5.6-.45,1.1.53,2.68-.56,3.92l-1.55-2c.38,1.65.51,2.24.64,2.81l-1.13.54c-.37-2.93-2.76-1.65-4.39-2-.28,1-.57,2.12-.8,3-2.12,1.22-1.18-2-2.75-1.73-.9,1.16.89,2.34-.13,3.59-2-1-.52-3.93-3.09-5.07a4.41,4.41,0,0,1-.06,4.7,3.7,3.7,0,0,0-3.92.43,4.93,4.93,0,0,0-3.72-.71c-.19-1.45,1.43-2.33.64-3.83-.47,1.09-.91,2.09-1.36,3.12-1.29-.29-1.38-1.57-2.17-2.17l-.31.37c.05.41.77.6.33,1.21l-1.15-.83-.38.3c.73,1-.12,1.46-.79,2.16L297,21.31l-1.12,1.44c-.39-1-.36-2.05-1.43-2.63-.12.68-.22,1.22-.37,2.06-1.11-1.45-2.24-2.13-3.81-1.62v1.89a.94.94,0,0,1,.37.37V23a.81.81,0,0,1,0,.22,9.54,9.54,0,0,1-.2,1.17l-.31-.82-.26-.68h0c-.66-1-1,.52-1.61.29-.95-1.13.52-2.61-.73-3.73-.39,1.47-.75,2.83-1.19,4.46-.29-1.69-1.35.2-1.79-.54.25-1.37-2.08-2.19-.51-3.59l-2.21-1.36c-1.39,1.65.41,4.41-2.38,5.78,0-1.64.08-3-.84-4.14l1.41-.45c-1.33-.81-2.23.43-3.24.1.29-1.44,1.26-2.66.68-4.24-1.21,1-.44,2.77-1.72,3.6-1.64-.56-.85-2.29-1.9-3.83-.22,2.1-.43,3.61-1.24,4.8l-2.22-3.48v4.83c-.92.19-.5-1.34-1.56-.94-.29.75,1.17,1.82-.34,2.38-.22-1.49-2.15-1.19-2.47-2.8-.52.68-.83,1.06-1.36,1.75l-3.24-3.54h-.12l1.82,3.37c-1.59.48-.7,2.28-1.79,3-1.17-.52-.16-1.84-.78-2.37-1.76-.69-.66.94-1.56,1.43l-2-4.93-.3.11c.16.89.32,1.78.45,2.55-.83.68-1-.67-1.81-.36.17.66.33,1.23.51,1.93-1.71-.1-1.93-1.2-2-2.32l-1.91-.94-.9,3.89L248,25c-1.5-1.3.94-3-.49-4.31l-1.62,2.1c-1.17-2.09-1.07-4.18-1.57-6.18,1.27-.42,1.9-1.25,2-3l-3,2.56c-1.06-1.36-.15-3.56-2.32-4.63.81,3.71,1.55,7,2.36,10.72l.69.35c-.29.38-.54.4-1-.33-1-.66-1.72-1.95-2.52-.08,2.43,0,.86,1.56,1.27,2.89-1.05-1-2.79,0-2.78-1.45-1.37-.22-2.59.69-3.86-.13-1-.66-.74-1.55-.54-2.69.27-1.59,1.56-3.07.72-5.19-1.13,2-1,4.16-2.25,5.71-.41-.41.39-1.42-.81-1.51-.41.87,0,2.19-1.32,2.64-.85-2.74.48-5.25.14-7.93-.34,1.27-.69,2.54-1,3.86l-.84-.71-.3.37c-.81,1.17-.14,2.55-.56,3.94l-.61-.81v2.18c-.22-.09-.49-.12-.56-.25-.87-1.7,1.27-3.18.19-4.95l-1,2c-.09-.59-.17-1.07-.32-2-.53,1.63-.94,2.85-1.5,4.57l-.16-3.27c-2,.77-.91,2.51-1.46,3.81l-.86-.7-.32.37c-.28.91-.7.71-1.17.16-.46.41.33,1.4-.79,1.57-.16-.38-.31-.76-.51-1.25-.14.65-.26,1.17-.46,2.07-2.49-2.5-2.94-5.5-4.21-8.5.41,2.63-2.29,4.11-1.63,6.6l-4.27-7.28c.12,2.13,1.6,3.9.75,6.49-.61-2.32-3.28-3.13-2.67-5.6-.78-.26-.57.54-1,.73-.9-1.38-3.23-2-2.31-4.35l-.31-.37-.92.72c-.73-.66-.7-1.89-1.91-1.76l-.38.3,1.29,2c-1.69-.37-1.28.87-1.54,1.73-.23-.53-.41-.92-.74-1.65-.33.73-.5,1.13-.78,1.77-.6-2.06-1.13-3.91-1.68-5.77-1.91.24-2.51-.47-1.57-2.31.32-.63.53-1.32.8-2l-.38-.31c-.38.72-.77,1.43-1.23,2.28-.93-1.45-1.19-3.26-3-4.76,1.41,3.76,2.53,7.07,3.92,10.25.49,1.13-.07,1.5-.35,2-.94.41-1-.34-1.37-.6L193,16.16c-.45-.72-.89-1.4-1.5-2.39-.24,1.41,1.21,2.13.54,3.38l-7.41-8.8-.17.13c0,.08.09.15.15.23l-.27-.13-.31.23,7.17,9.54c-3-1.49-4.43-3.8-7.15-4.84v.08H184c2.22,3.39,6.76,4.28,7.19,8.56l-1.76,1.08c-.5-.44.2-1.26-.59-1.55-1.62.17-.31,2.4-2.38,2.66-.32-2.43-.64-4.9-1-7.43-1.39.83,1,2.9-1.17,3.35.27,1.31.53,2.57.91,4.43-1.28-1.48-2.17-2.52-3-3.47-.89,0-1.43,2.07-2.22.11-.48.52.33,1.51-.93,1.68-.22-.56,0-1.37-.78-1.69-1.68.63.65,2.11-.63,2.89a12.05,12.05,0,0,1-1.15-8.45l-1.5-.66v5.82C169.4,14.68,171.63,7.1,168.53.07c.57,5.17,1,9.31,1.52,13.65l-1-.81-.3.38.48,6.51-2-2.93c0,1.38.84,2.6-.63,3-.9-.13-.87-1.17-1.49-1.57a35.84,35.84,0,0,1-.89,3.68,5.1,5.1,0,0,0-.19-1.34,3.45,3.45,0,0,1-.26.28c-.21-.82-.41-1.62-.6-2.41a38.38,38.38,0,0,1-3-5.55,5.6,5.6,0,0,0-.82,1,10.9,10.9,0,0,1,.82,7c0-2.65-2.33-4.51-.82-7-.41-1-.85-2-1.18-3-1.77,2.66-.41,8.44-2.85,9.73-.09.17-.17.34-.28.51a3.37,3.37,0,0,1-.19-.32,3.08,3.08,0,0,1-.68.08c-2,0-2-5-3-8-1,2-1,5-1,7,0-3,0-7-2-10v.73c.89,1.49,1.72,3.12,1,5.27a11.38,11.38,0,0,1-1-5.27c-.35-.59-.72-1.16-1-1.73a32,32,0,0,1-.6,5.85,16.91,16.91,0,0,1-.74,6.2c-.2-.18-.36-.36-.54-.55l-.12.5a4.18,4.18,0,0,0-.09-.71c-3.56-4-.46-7.95.18-12.72.08.34.16.65.24,1A47.91,47.91,0,0,1,147.2,2,22.94,22.94,0,0,0,145,4.51,21.83,21.83,0,0,1,142,12.69c-1.23,2,.25,4.65-1,6.78a2.56,2.56,0,0,1-1.35-1.75c-.62,1.12.38,2.48-.83,3.35-.68-.66.77-1.31,0-1.92-.19.16-.4.34-1.13,1,1.3-2.32.71-4,0-6.21l-1.9,6.58c-.59-.28-1.27-.37-1.43.66-1.55-1.34,1-2.29-.1-3.56l-1.32,2.73c-1.63-.17-1.19-1.2-1.16-1.76-.91-1.17-3.3,1.2-3.46-1.87-.57,0-1.39.36-1.92-.56-.43.87-.78,1.6-1.61,1.87l-.39.32a.86.86,0,0,1-.18.88c-.24.24-.61.38-.83.6-.88.13-1.33-.81-2.08-.4-.27-.87.91-1.61-.23-2.36L119.71,21c-3.06.41-2.33-2.59-3.52-4,.85-.23,1.22-1,1.56-1.73l-.37-.3c-.21.25-.43.5-.69.82l-.38-1.24c-.59,1.49-1.66,2.73-.88,4.34L114,16.2l-.51.25c.44,1,.89,2.08,1.35,3.16-1.15.71-1.37,0-1.45-1.15-.4.72-.7,1.25-1,1.84L111.27,19v.46a3.89,3.89,0,0,1-1,2.8,2,2,0,0,1-1.22-.4c-.81-.67-.58-2-.89-3v-.07a1,1,0,0,0-.11-.29,1.64,1.64,0,0,0-.79-.75c0,.81-.08,1.57-.12,2.36l-1.56.45a.31.31,0,0,0,0,.19l.13.18c1.15-.35,1.68,0,1.73,1.56l-2.1-1.26c-1,.6-1-.74-1.75-.78,0-1.41,1.2-2.52.76-4.17L103,18.79a.19.19,0,0,1-.15,0c-.12.23-.24.45-.38.67l.27.61a1,1,0,0,1-1,.31A5.94,5.94,0,0,1,99.16,22a4,4,0,0,0,.2-1.29h0c-.13.13-.27.21-.41.1a1.07,1.07,0,0,1-.28-.44H98.6l-.07-.13h0a4.09,4.09,0,0,0-1.21,0,.71.71,0,0,1-.29,0,1,1,0,0,1-.55-.71c.22-1.58.5-3.17.78-4.77a4.15,4.15,0,0,1-.08-.79c0,2-3,1-3,3-1-2,1-3,0-5,0,4-6,5-9,4,1.25,0,.8-.12,1.65-.93a9.83,9.83,0,0,0,1.35-4c-1,3-6,2-5,6-2,0-1-3-3-4v4a10,10,0,0,0-2.78-3.85A30.32,30.32,0,0,0,78.53,17a3.5,3.5,0,0,1-1.38-1.37c-.65-1.13-.76-2.38-2-2.76a4,4,0,0,0,0,.49c0,1.54,1.28,3.18,1.25,4.86a3,3,0,0,1-.35,1.34c0,.09-.1.18-.16.27a3.57,3.57,0,0,1-.42.54,6.07,6.07,0,0,1-.93.82c-.31-1.28-.45-1.9-.6-2.5-1.85,1-.76-1-1.4-1.31-1.2.62-.36,1.82-.79,2.83H69.18l-.8-1.84-.7.91-.15-.13c-.43-.7.55-1.28.37-1.93a.78.78,0,0,0-.16-.28c-2.87.86-.19,3.76-1.93,5.35-.12-.72-.2-1.2-.28-1.73l-1.43.25c.54-1.46,1-2.68,1.42-3.89-1.2,1.14-2,2.55-3.6,3.34A3.27,3.27,0,0,1,61.08,18c-.62.34-1.23.65-1.83.91,1-1-1-2-1-3,0,1-1,3-2,3-4,0-2-4-3-6,0,3-4,4-3,7-1-2,1-6-1-6-3,0-4,5-5,8-1-2,1-4-1-5,0,.56-.62,1.12-1,1.68.3.44.44.88,0,1.32-.44-.44-.3-.88,0-1.32-.38-.56-1-1.12-1-1.68,0,1-2,2-1,3-1,0-2-2-3-1v2c-1.29,1.29-2.16.5-2.88-.22-.32.41-.63.82-.93,1.25-1-2.18-2.51-3.73-2.62-5.84-.11-2.31,0-4.63,0-7.93-2.13,3.59-.77,6.68-1.73,9.52-1.67-1.67-1.34-4-2.17-6.13-.39.46-.62.72-.88,1l-3.35-5.2C23,11.52,27,13.6,26.75,17.87l-.66-1.57L25.25,19l-2.11-.31.43-.78-.38-.3c-.77.34-1-.7-1.78-.69l.26,1.64c-1.53-.66-2.06-2.08-3.1-3.54-.53,2.3,1.2,4.5-.58,6.11-2.11.27-2-1.72-2.81-2.65-1,.62.55,1.23-.24,1.79-1.12.13-1.2-1-1.47-1.57a2,2,0,0,0-1.91-1.27l1.8,3.24c-1.45.21-1-1.12-1.62-1.53-.12.57-.23,1.11-.32,1.53-1.27.41-1.06-.59-1.6-1.58.61,3.61-2.45,3.32-3.64,3.41-2.43.18-1.87-2.78-2.67-4.45-.91.7-1.61,1.25-2.35,1.84C.64,19.75,1.3,18,0,18.94V58.71H425.22V21.56Z" transform="translate(0 -0.07)"/>
    <path class="cls-1" d="M148.22,10.65a11.38,11.38,0,0,0,1,5.27C150,13.77,149.11,12.14,148.22,10.65Z" transform="translate(0 -0.07)"/>
    <path class="cls-1" d="M145.22,21l.12-.5-.21-.21A2.13,2.13,0,0,1,145.22,21Z" transform="translate(0 -0.07)"/>
    <path class="cls-1" d="M102,18.24l.48,1.14c.14-.22.26-.44.38-.67C102.56,18.52,102.61,17.71,102,18.24Z" transform="translate(0 -0.07)"/>
    <path class="cls-1" d="M42.22,20c.44-.44.3-.88,0-1.32a.93.93,0,0,0,0,1.3Z" transform="translate(0 -0.07)"/>
    <path class="cls-1" d="M99.81,20.2a5.22,5.22,0,0,0-.39.43,4,4,0,0,1-.2,1.29,6,6,0,0,0,2.49-1.62C101.06,20.16,100.41,19.61,99.81,20.2Z" transform="translate(0 -0.07)"/>
  </g>
</svg>
