<svg id="Layer_1" data-name="Layer 1" xmlns="http://www.w3.org/2000/svg" viewBox="0 0 141.12 179.83">
  <defs>
    <style>
      .cls-1 {
        fill: #303844;
      }
    </style>
  </defs>
  <path class="cls-1" d="M36,172.39c12,10,29,7,44,7,28-2,55-1,84-5,3-1,6-3,6-5,.76-2.6,1.55-5.27,2.35-8-2.29-5.33-1.41-11.25-3.87-16.83.57,5.17,1,9.31,1.52,13.65l-1-.8-.3.37c.14,1.9.28,3.81.47,6.51l-2-2.93c0,1.39.84,2.6-.63,3.06-1.1-.17-.8-1.68-2-1.73-.16.7.57,1.48-.85,2.77a52.52,52.52,0,0,1-2.15-13c.86-1,1.91-.3,2.64-.7.62-4.26-1.51-7.65-3-11.11,0-2.34,4.13-2,3.15-5-2.74.9-4.21-.33-4.72-2.86-.6-2.91-1.08-5.85-1.56-8.79-1.29-8-2.55-16-3.85-24-1.07-6.66-2.22-13.3-3.26-20-1.24-8-2.45-15.92-3.54-23.9-.34-2.48-1.58-4.84-.58-7.55,1.52-4.13.84-5.37-3.54-7l4-.4V38.79c-.85-.63-2.16-.27-2.75-1.68,5.64-4.92.64-9.63-.91-14.7h4.54V15.5l-2.54-.39c.31-4-4.33-5.36-4.27-9-3.69-.79-2.57,2.18-3.27,3.63-1,.28-2.31.09-2.85,1-1.27,2.13-3.23,2.66-5.47,3.1-2.51.51-7.1-1.86-7.36-4.46-.55-5.36-3.69-8.31-8.63-9C105.53-.77,97.46-.11,96.21,11.81c-.24,2.31.68,4.59-.18,7.28-4.83-.89-8.57.73-12.76,3.41a106.37,106.37,0,0,0-12.45,9.94A45.11,45.11,0,0,0,60.36,45.79c-1.55,3.07-5,4-6.62,6.72A24.7,24.7,0,0,1,49.51,58c-4.75,4.44-7.39,10.27-9.28,16.2a63.18,63.18,0,0,0-3.11,15.56,1.75,1.75,0,0,0,1.54,1.85c4,.69,6.5,2.68,7.76,6.72,1.06,3.4,4.2,6.1,5.11,9.35,2.27,8.14,6.62,15.38,9.25,23.64C56.37,134,54.06,138.6,52,142.62c-1.22.85,0,1.3-.53,2C50.78,145,50,145.4,49,146c-1.94,9.06-10.42,13.41-15.5,20.69-.71-1.55-1.68-2.78-2.22-4.13C31.35,166.33,32.57,169.82,36,172.39Zm116.77-20.71a3.74,3.74,0,0,1,.83-.52,9.14,9.14,0,0,1,1.48,0c-.06,4.89,3.11,9.69,0,14.68C152.23,161.37,152.82,156.48,152.77,151.68Zm-6.85,14c-4.71-4.25-1.25-8.4-.58-13.47C146.65,157.16,147.32,161.2,145.92,165.64ZM132.36,51.29c.25-.57.48-1.26,1.41-1.13s1,.81,1.15,1.4c1.79,7.07,2.06,14.35,2.61,21.55.75,9.79,1.69,19.56,2.55,29.33.52,6,1.58,12,1.13,18.1-.21,2.79-2.16,2.94-4.23,2.9-.56.69.63,1.43-.16,2,1.56.78,3.81.38,4.29,2.77l2.74.19c1.42,2.38.8,4.93.92,7.38.18,3.43.47,6.9.58,10.26A20.68,20.68,0,0,1,142,157.32c-1.3,2,.18,4.69-1.12,6.81a2.52,2.52,0,0,1-1.35-1.74c-.62,1.11.38,2.47-.83,3.34-.68-.66.77-1.31,0-1.92l-1.09,1c1.3-2.31.71-4,0-6.21l-2,6.59c-.58-.27-1.26-.36-1.42.66-1.55-1.34,1-2.29-.1-3.56L132.81,165c-1.63-.17-1.19-1.2-1.16-1.76-.91-1.17-3.3,1.2-3.46-1.87-.57,0-1.39.36-1.93-.56-.42.87-.77,1.6-1.6,1.88l-.39.31a.84.84,0,0,1-.18.88c-.24.25-.61.38-.83.6-.88.13-1.33-.81-2.08-.4-.27-.87.91-1.61-.23-2.36-.41,1.36-.79,2.6-1.18,3.9-3.07.41-2.33-2.59-3.52-4,.85-.23,1.22-1,1.56-1.73l-.37-.3c-.22.25-.43.51-.69.82l-.38-1.24c-.59,1.5-1.66,2.73-.88,4.34L114,160.86l-.51.25c.44,1,.89,2.08,1.35,3.16-1.15.71-1.38,0-1.45-1.15l-1,1.84-1-1.25v.46a3.89,3.89,0,0,1-1,2.8,2,2,0,0,1-1.23-.4c-.8-.66-.57-2-.89-3v-.07a1.69,1.69,0,0,0-.12-.28,1.56,1.56,0,0,0-.78-.76l-.13,2.36-1.56.46a.54.54,0,0,0,0,.18.83.83,0,0,0,.13.18c1.14-.35,1.68.05,1.73,1.56l-2.1-1.26c-1,.61-1.05-.74-1.75-.78,0-1.4,1.2-2.52.75-4.17-.5.91-.93,1.68-1.39,2.49-.43.07-.22-1.13-1-.52l.75,1.75c-1,1-2-.67-2.88.21-.13.12-.26.3-.39.43s-.27.21-.41.1a1,1,0,0,1-.28-.44h-.07l-.07-.13a4.47,4.47,0,0,0-1.21.05.93.93,0,0,1-.29-.05.9.9,0,0,1-.55-.7c.77-5.58,2.22-11.16,2.16-17a24.47,24.47,0,0,0-1.53-9.85c-.62-1.43-.31-2.29,1.36-2.38.34-.69-.16-1.27,0-2,1.93-8.91,5.72-17.1,9.37-25.35q7-16,14-32C125.47,67.52,128.89,59.39,132.36,51.29ZM118,29.87c1.47.27,2.3-.18,2.81-1.89,1-3.26,2-6.46,2.73-9.82.24-1.21,1.73-1.64,3.37-1.89-.35,2.61.59,4.86,1.29,7.17.95,3.12-.85,6-3.85,7.13-1.77.66-3,2.84-5.38,1.7-1.07-.51-2.49-.51-2.81-2C116.65,29.5,117.27,29.79,118,29.87ZM85.73,84.92c.43-6.36,3.92-11.11,8.19-15.69a78.89,78.89,0,0,0,12-16.67c.75-1.41,1.74-2.54,3.61-2.39,6.1.51,12-1.13,18.57-1.48l-29,66.14c-6.49-10-11.11-19.68-16.32-29.52Zm-23.45,75.6c4.51-4.86,9.09-9.68,12.08-15.72.52-1,.93-1.11,2.08-.29.89.64.72-1,1.69-.38a25.89,25.89,0,0,0,.55,17.49,3.57,3.57,0,0,1-1.45-1.38c-.65-1.13-.76-2.37-2-2.75a3.84,3.84,0,0,0,0,.48c0,1.54,1.28,3.18,1.24,4.86a2.84,2.84,0,0,1-.34,1.34c0,.09-.1.18-.16.27a3.2,3.2,0,0,1-.42.55,5.16,5.16,0,0,1-.94.81c-.3-1.28-.44-1.89-.59-2.5-1.85,1-.76-1-1.4-1.3-1.2.62-.36,1.82-.79,2.82H69.26c-.23-.52-.48-1.08-.8-1.84l-.7.91-.15-.13c-.43-.7.55-1.27.37-1.93a1.12,1.12,0,0,0-.16-.28c-2.87.87-.19,3.77-1.93,5.35l-.28-1.73-1.43.25,1.41-3.89c-1.19,1.14-2,2.56-3.59,3.34C60.87,163.39,60.78,162.12,62.28,160.52Z" transform="translate(-31.23 0.01)"/>
</svg>
