<svg width="18" height="18" viewBox="0 0 18 18" fill="none" xmlns="http://www.w3.org/2000/svg">
<path d="M12.0008 12.791L13.5507 11.241C13.7595 11.0348 14.0236 10.8937 14.3111 10.8347C14.5985 10.7758 14.8968 10.8015 15.1699 10.9089L17.0589 11.6631C17.3349 11.7751 17.5715 11.9663 17.739 12.2126C17.9065 12.4589 17.9973 12.7492 18 13.047V16.5068C17.9984 16.7094 17.9558 16.9095 17.8748 17.0952C17.7938 17.2809 17.6761 17.4483 17.5287 17.5873C17.3813 17.7263 17.2073 17.834 17.0171 17.904C16.827 17.974 16.6247 18.0048 16.4223 17.9945C3.18528 17.1711 0.514341 5.96141 0.00921507 1.6713C-0.0142332 1.46062 0.00719085 1.24737 0.0720778 1.04557C0.136965 0.843771 0.243844 0.657996 0.385684 0.500469C0.527524 0.342941 0.701111 0.217231 0.895024 0.131608C1.08894 0.0459845 1.29878 0.0023895 1.51075 0.00369039H4.85289C5.15113 0.00457317 5.44228 0.0946597 5.6889 0.262363C5.93553 0.430066 6.12634 0.667716 6.23679 0.944747L6.99102 2.83378C7.10191 3.10576 7.1302 3.40439 7.07236 3.69236C7.01452 3.98033 6.87312 4.24488 6.66581 4.45295L5.11583 6.00293C5.11583 6.00293 6.00845 12.0437 12.0008 12.791Z" fill="#41AED0"/>
</svg>
