<svg width="5" height="24" viewBox="0 0 5 24" fill="none" xmlns="http://www.w3.org/2000/svg">
<path d="M3.85714 1.71429C3.85714 0.766071 3.09107 0 2.14286 0C1.19464 0 0.428571 0.766071 0.428571 1.71429V15.4286C0.428571 16.3768 1.19464 17.1429 2.14286 17.1429C3.09107 17.1429 3.85714 16.3768 3.85714 15.4286V1.71429ZM2.14286 24C2.71118 24 3.25622 23.7742 3.65809 23.3724C4.05995 22.9705 4.28571 22.4255 4.28571 21.8571C4.28571 21.2888 4.05995 20.7438 3.65809 20.3419C3.25622 19.9401 2.71118 19.7143 2.14286 19.7143C1.57454 19.7143 1.02949 19.9401 0.627628 20.3419C0.225765 20.7438 0 21.2888 0 21.8571C0 22.4255 0.225765 22.9705 0.627628 23.3724C1.02949 23.7742 1.57454 24 2.14286 24Z" fill="#D9F71E"/>
</svg>
