<svg width="17" height="19" viewBox="0 0 17 19" fill="none" xmlns="http://www.w3.org/2000/svg">
<path d="M1.82143 0.890625C1.82143 0.39707 1.4154 0 0.910714 0C0.406027 0 0 0.39707 0 0.890625V2.375V13.0068V14.8438V18.1094C0 18.6029 0.406027 19 0.910714 19C1.4154 19 1.82143 18.6029 1.82143 18.1094V14.3984L4.86853 13.6525C6.42813 13.2703 8.07879 13.4484 9.51696 14.1498C11.1942 14.9699 13.1408 15.0701 14.894 14.4244L16.2107 13.942C16.685 13.7676 17 13.326 17 12.8287V2.45293C17 1.59941 16.0817 1.04277 15.3 1.425L14.9357 1.60312C13.1788 2.46406 11.1107 2.46406 9.3538 1.60312C8.02188 0.95 6.49263 0.786719 5.04688 1.13926L1.82143 1.92969V0.890625ZM1.82143 3.7666L5.48705 2.86855C6.51161 2.61992 7.59308 2.73496 8.53795 3.19512C10.6212 4.21191 13.0422 4.29727 15.1786 3.44746V12.4205L14.2527 12.7582C12.9739 13.2258 11.5509 13.1553 10.329 12.5578C8.5 11.6635 6.40915 11.4408 4.42455 11.9232L1.82143 12.5615V3.7666Z" fill="#D9F71E"/>
</svg>
