<svg width="29" height="29" viewBox="0 0 29 29" fill="none" xmlns="http://www.w3.org/2000/svg">
<path d="M25.375 14.5C25.375 13.0719 25.0937 11.6577 24.5472 10.3383C24.0007 9.0189 23.1996 7.82005 22.1898 6.81021C21.1799 5.80038 19.9811 4.99933 18.6617 4.45281C17.3423 3.90629 15.9281 3.625 14.5 3.625C13.0719 3.625 11.6577 3.90629 10.3383 4.45281C9.0189 4.99933 7.82005 5.80038 6.81021 6.81021C5.80038 7.82005 4.99933 9.0189 4.45281 10.3383C3.90629 11.6577 3.625 13.0719 3.625 14.5C3.625 15.9281 3.90629 17.3423 4.45281 18.6617C4.99933 19.9811 5.80038 21.1799 6.81021 22.1898C7.82005 23.1996 9.0189 24.0007 10.3383 24.5472C11.6577 25.0937 13.0719 25.375 14.5 25.375C15.9281 25.375 17.3423 25.0937 18.6617 24.5472C19.9811 24.0007 21.1799 23.1996 22.1898 22.1898C23.1996 21.1799 24.0007 19.9811 24.5472 18.6617C25.0937 17.3423 25.375 15.9281 25.375 14.5ZM0 14.5C0 10.6544 1.52767 6.96623 4.24695 4.24695C6.96623 1.52767 10.6544 0 14.5 0C18.3456 0 22.0338 1.52767 24.753 4.24695C27.4723 6.96623 29 10.6544 29 14.5C29 18.3456 27.4723 22.0338 24.753 24.753C22.0338 27.4723 18.3456 29 14.5 29C10.6544 29 6.96623 27.4723 4.24695 24.753C1.52767 22.0338 0 18.3456 0 14.5ZM14.5 19.0312C15.7018 19.0312 16.8543 18.5539 17.7041 17.7041C18.5539 16.8543 19.0312 15.7018 19.0312 14.5C19.0312 13.2982 18.5539 12.1457 17.7041 11.2959C16.8543 10.4461 15.7018 9.96875 14.5 9.96875C13.2982 9.96875 12.1457 10.4461 11.2959 11.2959C10.4461 12.1457 9.96875 13.2982 9.96875 14.5C9.96875 15.7018 10.4461 16.8543 11.2959 17.7041C12.1457 18.5539 13.2982 19.0312 14.5 19.0312ZM14.5 6.34375C16.6632 6.34375 18.7377 7.20307 20.2673 8.73266C21.7969 10.2623 22.6562 12.3368 22.6562 14.5C22.6562 16.6632 21.7969 18.7377 20.2673 20.2673C18.7377 21.7969 16.6632 22.6562 14.5 22.6562C12.3368 22.6562 10.2623 21.7969 8.73266 20.2673C7.20307 18.7377 6.34375 16.6632 6.34375 14.5C6.34375 12.3368 7.20307 10.2623 8.73266 8.73266C10.2623 7.20307 12.3368 6.34375 14.5 6.34375ZM12.6875 14.5C12.6875 14.0193 12.8785 13.5583 13.2184 13.2184C13.5583 12.8785 14.0193 12.6875 14.5 12.6875C14.9807 12.6875 15.4417 12.8785 15.7816 13.2184C16.1215 13.5583 16.3125 14.0193 16.3125 14.5C16.3125 14.9807 16.1215 15.4417 15.7816 15.7816C15.4417 16.1215 14.9807 16.3125 14.5 16.3125C14.0193 16.3125 13.5583 16.1215 13.2184 15.7816C12.8785 15.4417 12.6875 14.9807 12.6875 14.5Z" fill="#D9F71E"/>
</svg>
