<svg width="24" height="25" viewBox="0 0 24 25" fill="none" xmlns="http://www.w3.org/2000/svg">
<path d="M23.9335 8.13636C24.0926 8.56124 23.9583 9.03497 23.6152 9.33776L21.4617 11.262C21.5164 11.6673 21.5463 12.0824 21.5463 12.5024C21.5463 12.9224 21.5164 13.3376 21.4617 13.7429L23.6152 15.6671C23.9583 15.9699 24.0926 16.4436 23.9335 16.8685C23.7146 17.4497 23.4511 18.0064 23.1477 18.5437L22.9139 18.9392C22.5857 19.4765 22.2177 19.9844 21.8148 20.463C21.5214 20.8146 21.034 20.9318 20.5964 20.7951L17.8262 19.9307C17.1598 20.4337 16.4238 20.8537 15.638 21.1711L15.0163 23.9598C14.9168 24.4042 14.5687 24.7558 14.1112 24.8291C13.4249 24.9414 12.7186 25 11.9975 25C11.2764 25 10.5702 24.9414 9.88385 24.8291C9.42631 24.7558 9.07818 24.4042 8.97871 23.9598L8.35705 21.1711C7.57126 20.8537 6.83521 20.4337 6.16879 19.9307L3.40362 20.8C2.96597 20.9367 2.47859 20.8146 2.18516 20.4679C1.78232 19.9893 1.4143 19.4813 1.08606 18.9441L0.852315 18.5485C0.548942 18.0113 0.285357 17.4546 0.0665309 16.8734C-0.0926152 16.4485 0.0416643 15.9748 0.384823 15.672L2.53827 13.7478C2.48356 13.3376 2.45372 12.9224 2.45372 12.5024C2.45372 12.0824 2.48356 11.6673 2.53827 11.262L0.384823 9.33776C0.0416643 9.03497 -0.0926152 8.56124 0.0665309 8.13636C0.285357 7.55519 0.548942 6.99844 0.852315 6.46122L1.08606 6.06564C1.4143 5.52842 1.78232 5.02051 2.18516 4.5419C2.47859 4.19027 2.96597 4.07306 3.40362 4.20981L6.17376 5.07423C6.84019 4.57121 7.57624 4.1512 8.36202 3.83376L8.98368 1.04513C9.08315 0.600703 9.43128 0.249072 9.88883 0.175816C10.5751 0.0586052 11.2814 0 12.0025 0C12.7236 0 13.4298 0.0586052 14.1161 0.170932C14.5737 0.244188 14.9218 0.595819 15.0213 1.04024L15.643 3.82887C16.4287 4.14632 17.1648 4.56632 17.8312 5.06935L20.6013 4.20492C21.039 4.06818 21.5264 4.19027 21.8198 4.53702C22.2226 5.01563 22.5907 5.52354 22.9189 6.06075L23.1527 6.45634C23.456 6.99355 23.7196 7.5503 23.9384 8.13147L23.9335 8.13636ZM13 18.5485C14.0552 18.5485 17.0801 16.7327 17.8262 16C18.5724 15.2673 17.8312 11.5362 17.8312 10.5C17.8312 9.4638 15.7625 7.73271 15.0163 7C14.2702 6.26729 12.0552 6.5 11 6.5C9.9448 6.5 7.74614 8.26729 7 9C6.25386 9.73271 5.5 11.4662 5.5 12.5024C5.5 13.5386 7.61091 16.7673 8.35705 17.5C9.10319 18.2327 11.9448 18.5485 13 18.5485Z" fill="#D9F71E"/>
</svg>
